<svg width="29" height="36" viewBox="0 0 29 36" fill="none" xmlns="http://www.w3.org/2000/svg">
<path d="M24.215 3.75281H19.9232C19.8768 1.6779 18.1758 0 16.0893 0H12.3393C10.2528 0 8.55176 1.675 8.5054 3.75281H4.20778C1.88655 3.75281 0 5.63935 0 7.95769V9.68485C0 10.363 0.550605 10.9136 1.22872 10.9136H1.9503V30.4311C1.9503 33.0566 4.08607 35.1895 6.70869 35.1895H21.7141C24.3396 35.1895 26.4725 33.0537 26.4725 30.4311V10.9165H27.1941C27.8722 10.9165 28.4228 10.3659 28.4228 9.68775V7.96059C28.4228 5.63935 26.5363 3.75281 24.215 3.75281ZM12.3364 2.45744H16.0864C16.8195 2.45744 17.4223 3.03123 17.4658 3.75281H10.9541C11.0005 3.03123 11.6004 2.45744 12.3336 2.45744H12.3364ZM2.45744 7.95769C2.45744 6.99268 3.24277 6.20735 4.20778 6.20735H24.215C25.18 6.20735 25.9654 6.99268 25.9654 7.95769V8.45903H2.45744V7.95769ZM24.018 30.4311C24.018 31.7004 22.9863 32.7349 21.717 32.7349H6.70869C5.4394 32.7349 4.40484 31.7033 4.40484 30.4311V10.9165H24.018V30.4311Z" fill="#F64E60"/>
<path d="M9.19802 28.9213C9.87613 28.9213 10.4267 28.3707 10.4267 27.6926V16.3588C10.4267 15.6807 9.87613 15.1301 9.19802 15.1301C8.5199 15.1301 7.9693 15.6807 7.9693 16.3588V27.6926C7.9693 28.3707 8.5199 28.9213 9.19802 28.9213Z" fill="#F64E60"/>
<path d="M14.2114 28.9213C14.8895 28.9213 15.4401 28.3707 15.4401 27.6926V16.3588C15.4401 15.6807 14.8895 15.1301 14.2114 15.1301C13.5333 15.1301 12.9827 15.6807 12.9827 16.3588V27.6926C12.9827 28.3707 13.5333 28.9213 14.2114 28.9213Z" fill="#F64E60"/>
<path d="M19.2248 28.9213C19.9029 28.9213 20.4535 28.3707 20.4535 27.6926V16.3588C20.4535 15.6807 19.9029 15.1301 19.2248 15.1301C18.5467 15.1301 17.9961 15.6807 17.9961 16.3588V27.6926C17.9961 28.3707 18.5467 28.9213 19.2248 28.9213Z" fill="#F64E60"/>
</svg>
