<svg width="35" height="35" viewBox="0 0 35 35" fill="none" xmlns="http://www.w3.org/2000/svg">
<path d="M0 20.9052C0 21.9764 0.868413 22.8448 1.93966 22.8448H16.1422V29.8823L13.327 27.1225C12.9377 26.7408 12.3142 26.7414 11.9256 27.1239L11.4354 27.6062C11.0373 27.998 11.0373 28.6399 11.4354 29.0317L16.7986 34.3097C17.1878 34.6927 17.8122 34.6927 18.2014 34.3097L23.5646 29.0317C23.9627 28.6399 23.9627 27.998 23.5646 27.6062L23.0744 27.1239C22.6858 26.7414 22.0623 26.7408 21.6729 27.1225L18.8578 29.8823V22.8448H33.0603C34.1316 22.8448 35 21.9764 35 20.9052C35 19.8339 34.1316 18.9655 33.0603 18.9655H1.93966C0.868414 18.9655 0 19.8339 0 20.9052ZM11.4354 5.96829C11.0373 6.36007 11.0373 7.002 11.4354 7.39378L11.9256 7.87613C12.3142 8.25861 12.9377 8.25921 13.327 7.87748L16.1422 5.11767V12.1552H1.93966C0.868414 12.1552 0 13.0236 0 14.0948C0 15.1661 0.868413 16.0345 1.93966 16.0345H33.0603C34.1316 16.0345 35 15.1661 35 14.0948C35 13.0236 34.1316 12.1552 33.0603 12.1552H18.8578V5.11767L21.673 7.87748C22.0623 8.25921 22.6858 8.25861 23.0744 7.87613L23.5646 7.39377C23.9627 7.002 23.9627 6.36007 23.5646 5.96829L18.2014 0.690295C17.8122 0.307282 17.1878 0.307281 16.7986 0.690294L11.4354 5.96829Z" fill="#656565"/>
</svg>
