<svg width="35" height="35" viewBox="0 0 35 35" fill="none" xmlns="http://www.w3.org/2000/svg">
<path d="M34.4492 21.2179C35.6885 17.6458 34.4492 14.2926 34.4492 14.2926L30.3667 13.2356C30.3791 13.281 30.391 13.3257 30.4031 13.3707C30.2415 12.8657 30.0517 12.3735 29.8345 11.896L32.1139 8.14405C30.4644 4.74192 27.2169 3.24704 27.2169 3.24704L23.5829 5.38619C23.6266 5.41078 23.6691 5.43602 23.7122 5.46093C23.2433 5.21849 22.7581 5.00288 22.2592 4.81571L21.2179 0.550821C17.6458 -0.688526 14.2926 0.550821 14.2926 0.550821L13.2356 4.63332C13.281 4.62086 13.3257 4.60904 13.3707 4.5969C12.8657 4.75853 12.3732 4.94826 11.896 5.16547L8.14405 2.88609C4.74192 4.53557 3.24704 7.78311 3.24704 7.78311L5.38619 11.4171C5.41078 11.3737 5.43602 11.3309 5.46093 11.2878C5.21849 11.7567 5.00288 12.2419 4.81571 12.7408L0.550821 13.7821C-0.688526 17.3542 0.550821 20.7074 0.550821 20.7074L4.63332 21.7644C4.62086 21.719 4.60904 21.6743 4.5969 21.6293C4.75853 22.1343 4.94826 22.6268 5.16547 23.1041L2.88609 26.8559C4.53557 30.2581 7.78311 31.753 7.78311 31.753L11.4171 29.6138C11.3734 29.5892 11.3309 29.564 11.2878 29.5391C11.7567 29.7815 12.2419 29.9971 12.7408 30.1843L13.7821 34.4492C17.3542 35.6885 20.7074 34.4492 20.7074 34.4492L21.7644 30.3667C21.719 30.3791 21.6743 30.391 21.6293 30.4031C22.1343 30.2415 22.6268 30.0517 23.1041 29.8345L26.8559 32.1139C30.2581 30.4644 31.753 27.2169 31.753 27.2169L29.6138 23.5829C29.5892 23.6266 29.564 23.6694 29.5391 23.7122C29.7815 23.2433 29.9971 22.7581 30.1843 22.2592L34.4492 21.2179V21.2179ZM17.5002 23.8445C13.9961 23.8445 11.1555 21.0039 11.1555 17.4998C11.1555 13.9958 13.9961 11.1552 17.5002 11.1552C21.0042 11.1552 23.8448 13.9958 23.8448 17.4998C23.8448 21.0039 21.0042 23.8445 17.5002 23.8445Z" fill="#5B5B5B"/>
</svg>
