<svg width="29" height="27" viewBox="0 0 29 27" fill="none" xmlns="http://www.w3.org/2000/svg">
<path d="M16.8423 15.6771L25.3782 15.6771C26.8686 15.6771 28.073 14.5457 28.073 13.1457C28.073 11.7456 26.8686 10.6142 25.3782 10.6142L16.8423 10.6142L16.8498 2.58857C16.8498 1.1885 15.638 0.0500535 14.1476 0.0500536C12.6572 0.0500535 11.4453 1.1885 11.4453 2.58857L11.4453 10.6072L2.90934 10.6072C1.41895 10.6072 0.214583 11.7385 0.214583 13.1386C0.214583 14.5387 1.41895 15.67 2.90934 15.67L11.4453 15.67L11.4453 23.6886C11.4453 25.0887 12.6496 26.2201 14.14 26.2201C15.6304 26.2201 16.8348 25.0887 16.8348 23.6886L16.8348 15.67L16.8423 15.6771Z" fill="#5B5B5B" fill-opacity="0.57"/>
</svg>
