<svg width="36" height="32" viewBox="0 0 36 32" fill="none" xmlns="http://www.w3.org/2000/svg">
<path d="M10.1703 31.7123C7.56598 31.7123 4.96128 30.7281 2.97888 28.7601C1.05786 26.8527 0 24.3174 0 21.6206C0 18.9237 1.05786 16.3881 2.97888 14.4814L11.2834 6.23725L13.2099 8.1497L4.90534 16.3939C3.49909 17.7899 2.72458 19.6461 2.72458 21.6206C2.72458 23.595 3.49909 25.4512 4.90534 26.8473C7.80865 29.7295 12.5323 29.7295 15.4353 26.8473L31.9281 10.4744C32.804 9.60523 33.2813 8.44939 33.2729 7.21998C33.2646 5.99093 32.7713 4.84158 31.8834 3.98435C30.0935 2.25546 27.2008 2.27529 25.4352 4.02835L10.903 18.4549C10.6059 18.7499 10.442 19.1423 10.442 19.5595C10.442 19.9768 10.6059 20.3695 10.903 20.6645C11.5166 21.2736 12.5153 21.2736 13.1285 20.6645L25.5853 8.29829L27.5121 10.2107L15.0553 22.577C13.3795 24.2406 10.6524 24.2406 8.97659 22.577C8.16466 21.7709 7.71747 20.6991 7.71747 19.5595C7.71747 18.4199 8.16466 17.3481 8.97659 16.5421L23.5088 2.11553C26.3224 -0.677598 30.9316 -0.708973 33.7837 2.04557C35.198 3.41166 35.9841 5.24261 35.9975 7.20123C36.011 9.15985 35.2499 11.0016 33.8549 12.3865L17.3621 28.7597C15.3794 30.7281 12.7747 31.7123 10.1703 31.7123Z" fill="#5B5B5B"/>
</svg>
