<svg width="36" height="36" viewBox="0 0 36 36" fill="none" xmlns="http://www.w3.org/2000/svg">
<path d="M17.58 0C7.88933 0 0 7.88933 0 17.58C0 27.2706 7.88933 35.1599 17.58 35.1599C27.2706 35.1599 35.1599 27.2706 35.1599 17.58C35.1599 7.88933 27.2706 0 17.58 0ZM17.58 32C9.77045 32 2.5 25.3895 2.5 17.58C2.5 9.77045 9.77045 3 17.58 3C25.3895 3 32.5 9.77045 32.5 17.58C32.5 25.3895 25.3895 32 17.58 32Z" fill="#1BC5BD"/>
<path d="M17.66 9.15991C12.9635 9.15991 9.15997 12.9634 9.15997 17.6599C9.15997 22.3564 12.9635 26.1599 17.66 26.1599C22.3564 26.1599 26.16 22.3564 26.16 17.6599C26.16 12.9634 22.3564 9.15991 17.66 9.15991Z" fill="#1BC5BD"/>
</svg>
