<svg width="30" height="30" viewBox="0 0 30 30" fill="none" xmlns="http://www.w3.org/2000/svg">
<path d="M26.9044 0H2.2956C1.02843 0 0 1.02843 0 2.2956V26.9044C0 28.1716 1.02843 29.2 2.2956 29.2H26.9044C28.1716 29.2 29.2 28.1716 29.2 26.9044V2.2956C29.2 1.02843 28.1716 0 26.9044 0ZM26.4453 26.4453H2.75472V2.75472H26.4453V26.4453Z" fill="#1BC5BD"/>
<path d="M10.5414 21.8451C11.1841 22.4879 12.2309 22.4879 12.8737 21.8451L24.1405 10.5783C24.9945 9.72434 24.9394 8.31025 23.9844 7.52056C23.1488 6.84107 21.9092 6.98799 21.147 7.75012L11.7075 17.1896L7.98867 13.4708C7.13471 12.6168 5.72062 12.6719 4.93093 13.6269C4.25143 14.4625 4.39835 15.7021 5.15131 16.4642L10.5414 21.8543V21.8451Z" fill="#1BC5BD"/>
</svg>
