<svg width="32" height="32" viewBox="0 0 32 32" fill="none" xmlns="http://www.w3.org/2000/svg">
<path d="M28.4 31.88H3.36C3.34 31.8 3.26 31.82 3.21 31.81C1.53 31.4 0.48 30.35 0.07 28.67C0.06 28.61 0.07 28.54 0 28.52V7.35C0.11 7.29 0.08 7.17 0.1 7.07C0.53 5.47 1.55 4.48 3.14 4.07C3.71 3.92 4.3 3.99 4.88 3.98C5.31 3.98 5.31 3.98 5.31 3.57C5.31 2.86 5.31 2.16 5.31 1.45C5.31 0.55 5.86 0 6.76 0C7.12 0 7.49 0 7.85 0C8.76 0 9.29 0.53 9.29 1.45C9.29 2.19 9.3 2.92 9.29 3.66C9.29 3.91 9.33 3.99 9.6 3.99C13.83 3.99 18.07 3.99 22.3 3.99C22.52 3.99 22.6 3.95 22.6 3.71C22.58 2.94 22.59 2.17 22.6 1.41C22.6 0.55 23.15 0.01 24 0.01C24.36 0.01 24.73 0.01 25.09 0.01C26.05 0.01 26.58 0.54 26.58 1.52C26.58 2.28 26.58 3.03 26.58 3.79C26.58 3.95 26.61 4.01 26.78 4C27.16 3.99 27.55 4 27.93 4C30.1 4.02 31.88 5.77 31.88 7.94C31.88 14.61 31.88 21.28 31.88 27.95C31.88 29.78 30.61 31.35 28.83 31.79C28.69 31.83 28.52 31.79 28.4 31.9V31.88ZM15.94 15.57C11.62 15.57 7.31 15.57 2.99 15.57C2.71 15.57 2.66 15.64 2.66 15.87C2.66 19.89 2.66 23.91 2.66 27.94C2.66 28.8 3.17 29.24 4.17 29.24C12.02 29.24 19.86 29.24 27.71 29.24C28.71 29.24 29.22 28.8 29.22 27.94C29.22 23.92 29.22 19.9 29.22 15.87C29.22 15.64 29.17 15.58 28.89 15.58C24.57 15.58 20.26 15.58 15.94 15.58V15.57ZM15.94 12.74C20.26 12.74 24.57 12.74 28.89 12.74C29.17 12.74 29.22 12.66 29.22 12.4C29.22 7.76 29.22 13.11 29.22 8.47C29.22 7.48 28.71 6.97 27.71 6.97C19.86 6.97 12.02 6.97 4.17 6.97C3.17 6.97 2.66 7.48 2.66 8.47C2.66 13.11 2.66 7.76 2.66 12.4C2.66 12.66 2.71 12.74 2.99 12.74C7.31 12.73 11.62 12.74 15.94 12.74V12.74Z" fill="#5B5B5B"/>
</svg>
