<svg width="33" height="32" viewBox="0 0 33 32" fill="none" xmlns="http://www.w3.org/2000/svg">
<path d="M32.9093 1.74786C31.9317 1.83931 31.1657 1.94093 30.6013 2.05272C30.037 2.17466 29.6237 2.38806 29.3516 2.71324C29.0795 3.03843 28.9082 3.50588 28.8477 4.11559C28.7872 4.72531 28.757 5.54843 28.757 6.59511V25.3846C28.757 26.4414 28.7973 27.2747 28.8779 27.8742C28.9586 28.4738 29.14 28.9413 29.4423 29.2563C29.7447 29.5713 30.168 29.805 30.7223 29.927C31.2867 30.0489 32.0426 30.1607 33 30.2521V32H19.6809V30.2521C20.6988 30.1607 21.495 30.0591 22.0795 29.927C22.6641 29.805 23.1075 29.5815 23.3998 29.2563C23.692 28.9311 23.8835 28.4738 23.9642 27.8742C24.0448 27.2747 24.0851 26.4414 24.0851 25.3846V16.3404H8.94513V25.3846C8.94513 26.4414 8.98544 27.2747 9.06607 27.8742C9.1467 28.4738 9.32811 28.9413 9.60022 29.2563C9.87234 29.5713 10.2856 29.805 10.8298 29.927C11.374 30.0489 12.1198 30.1607 13.0571 30.2521V32H0.211646V30.2521C1.1187 30.1607 1.84435 30.0591 2.39866 29.927C2.95297 29.805 3.36618 29.5815 3.64838 29.2563C3.93057 28.9311 4.12206 28.4738 4.21277 27.8742C4.30347 27.2747 4.34378 26.4414 4.34378 25.3846V6.59511C4.34378 5.55859 4.30347 4.72531 4.21277 4.11559C4.12206 3.50588 3.93057 3.03843 3.62822 2.71324C3.32587 2.38806 2.88242 2.17466 2.30795 2.05272C1.73348 1.94093 0.957447 1.82915 0 1.74786V0H13.0269V1.74786C12.0997 1.83931 11.3639 1.94093 10.8197 2.05272C10.2755 2.17466 9.87234 2.38806 9.59015 2.71324C9.30795 3.03843 9.13662 3.50588 9.05599 4.11559C8.97536 4.72531 8.93505 5.54843 8.93505 6.59511V13.7796H24.0549V6.59511C24.0549 5.55859 24.0146 4.72531 23.944 4.11559C23.8735 3.50588 23.692 3.03843 23.4099 2.71324C23.1277 2.38806 22.7044 2.17466 22.1601 2.05272C21.6058 1.94093 20.8499 1.82915 19.8925 1.74786V0H32.8992V1.74786H32.9093Z" fill="#5B5B5B"/>
</svg>
