<svg width="29" height="30" viewBox="0 0 29 30" fill="none" xmlns="http://www.w3.org/2000/svg">
<path d="M27.1682 0H1.83184C0.822291 0 0 0.998024 0 2.22332V8.92292C0 10.1482 0.822291 11.1462 1.83184 11.1462H27.1682C28.1777 11.1462 29 10.1482 29 8.92292V2.22332C29 0.998024 28.1777 0 27.1682 0V0ZM27.0053 8.67589H2.03537V2.47036H27.0053V8.67589V8.67589Z" fill="#1BC5BD"/>
<path d="M27.1682 18.8538H1.83184C0.822291 18.8538 0 19.8518 0 21.0771V27.7767C0 29.002 0.822291 30 1.83184 30H27.1682C28.1777 30 29 29.002 29 27.7767V21.0771C29 19.8518 28.1777 18.8538 27.1682 18.8538V18.8538ZM27.0053 27.5296H2.03537V21.3241H27.0053V27.5296V27.5296Z" fill="#1BC5BD"/>
<path d="M1.53061 16.4822H6.41551C7.09125 16.4822 7.63673 15.8202 7.63673 15C7.63673 14.1799 7.09125 13.5178 6.41551 13.5178H1.53061C0.854867 13.5178 0.309387 14.1799 0.309387 15C0.309387 15.8202 0.854867 16.4822 1.53061 16.4822Z" fill="#1BC5BD"/>
<path d="M17.1948 16.4822C17.8706 16.4822 18.416 15.8202 18.416 15C18.416 14.1799 17.8706 13.5178 17.1948 13.5178H11.8051C11.1294 13.5178 10.5839 14.1799 10.5839 15C10.5839 15.8202 11.1294 16.4822 11.8051 16.4822H17.1948Z" fill="#1BC5BD"/>
<path d="M27.4694 16.4822C28.1451 16.4822 28.6906 15.8202 28.6906 15C28.6906 14.1799 28.1451 13.5178 27.4694 13.5178H22.5845C21.9088 13.5178 21.3633 14.1799 21.3633 15C21.3633 15.8202 21.9088 16.4822 22.5845 16.4822H27.4694Z" fill="#1BC5BD"/>
</svg>
