<svg width="32" height="32" viewBox="0 0 32 32" fill="none" xmlns="http://www.w3.org/2000/svg">
<path d="M16.0151 0C24.7664 0 31.9819 7.18347 31.9979 15.9668C32.0299 24.8622 24.8624 32.0296 15.8551 31.9816C7.13571 31.9496 0.0482361 24.9262 0.000239652 16.0948C-0.0477568 7.18347 7.11971 0 16.0151 0ZM16.0151 2.91179C8.79959 2.91179 2.91202 8.76735 2.91202 15.9348C2.91202 23.1983 8.75159 29.0859 15.9671 29.0859C23.2145 29.0859 29.1021 23.2143 29.0861 15.9668C29.0861 8.76735 23.2145 2.91179 16.0151 2.91179V2.91179Z" fill="#1BC5BD"/>
<path d="M14.5432 11.6313C14.5432 10.1594 14.5432 8.70353 14.5432 7.23164C14.5432 6.51169 15.0711 5.93573 15.7431 5.83974C16.495 5.74375 17.167 6.15972 17.375 6.86366C17.439 7.07165 17.423 7.26363 17.423 7.47162C17.423 9.99943 17.423 12.5432 17.423 15.0711C17.423 15.295 17.487 15.455 17.647 15.599C18.8789 16.8149 20.0948 18.0308 21.3107 19.2627C21.7107 19.6787 21.8866 20.1587 21.7267 20.7186C21.5667 21.2626 21.1987 21.6146 20.6547 21.7426C20.1588 21.8546 19.6948 21.7426 19.3428 21.3746C17.8709 19.9187 16.415 18.4468 14.9592 16.9909C14.6552 16.6869 14.5432 16.303 14.5432 15.871C14.5432 14.4471 14.5432 13.0232 14.5432 11.6153V11.6313Z" fill="#1BC5BD"/>
</svg>
