<svg width="29" height="29" viewBox="0 0 29 29" fill="none" xmlns="http://www.w3.org/2000/svg">
<path d="M27.7788 26.1344H15.363C15.363 26.1344 15.4363 26.0771 15.4607 26.0389L18.9127 21.9888C19.393 21.4252 19.393 20.5178 18.9127 19.9638C18.4323 19.4097 17.6589 19.4002 17.1867 19.9638L15.7131 21.6927V7.32642L17.1867 9.05534C17.667 9.61891 18.4405 9.61891 18.9127 9.05534C19.393 8.49176 19.393 7.58432 18.9127 7.0303L15.4607 2.98024C15.4607 2.98024 15.3793 2.90382 15.3386 2.86561H27.7706C28.4464 2.86561 28.9919 2.22563 28.9919 1.43281C28.9919 0.639987 28.4464 0 27.7706 0H1.22122C0.54548 0 0 0.639987 0 1.43281C0 2.22563 0.54548 2.86561 1.22122 2.86561H13.6533C13.6126 2.90382 13.5719 2.93248 13.5312 2.98024L10.0792 7.0303C9.59882 7.59387 9.59882 8.50132 10.0792 9.05534C10.5595 9.61891 11.333 9.61891 11.8052 9.05534L13.2788 7.32642V21.6927L11.8052 19.9638C11.3248 19.4002 10.5514 19.4002 10.0792 19.9638C9.59882 20.5273 9.59882 21.4348 10.0792 21.9888L13.5312 26.0389C13.5312 26.0389 13.5963 26.1057 13.6289 26.1344H1.22122C0.54548 26.1344 0 26.7744 0 27.5672C0 28.36 0.54548 29 1.22122 29H27.7788C28.4545 29 29 28.36 29 27.5672C29 26.7744 28.4545 26.1344 27.7788 26.1344V26.1344Z" fill="#1BC5BD"/>
</svg>
