<svg width="37" height="31" viewBox="0 0 37 31" fill="none" xmlns="http://www.w3.org/2000/svg">
<path d="M32.93 0H3.38C1.51 0 0 1.53 0 3.41V27.31C0 29.19 1.51 30.72 3.38 30.72H32.94C34.8 30.72 36.32 29.19 36.32 27.31V3.41C36.32 1.53 34.81 0 32.94 0H32.93ZM2.75 3.41C2.75 3.06 3.03 2.77 3.37 2.77H32.93C33.27 2.77 33.55 3.06 33.55 3.41V27.31C33.55 27.66 33.27 27.95 32.93 27.95H3.38C3.04 27.95 2.76 27.66 2.76 27.31V3.41H2.75Z" fill="#1BC5BD"/>
<path d="M8.00433 6.46429L4.69 15.3186H6.50441L7.30276 13.105H10.3631L11.1493 15.3186H12.9516L9.66149 6.46429H7.99223H8.00433ZM7.81079 11.6293L8.83896 8.81093L9.85503 11.6293H7.81079Z" fill="#1BC5BD"/>
<path d="M19.169 6.41593H19.8585V4.6499H19.169C18.2376 4.6499 17.3788 4.9523 16.7619 5.49663C16.145 4.9644 15.2861 4.6499 14.3547 4.6499H13.6653V6.41593H14.3547C15.2257 6.41593 15.8789 6.89977 15.8789 7.33523V14.3147C15.8789 14.7501 15.2257 15.234 14.3547 15.234H13.6653V17H14.3547C15.2861 17 16.145 16.6976 16.7619 16.1533C17.3788 16.6855 18.2376 17 19.169 17H19.8585V15.234H19.169C18.2981 15.234 17.6449 14.7501 17.6449 14.3147V7.33523C17.6449 6.89977 18.2981 6.41593 19.169 6.41593Z" fill="#1BC5BD"/>
</svg>
