<svg width="38" height="33" viewBox="0 0 38 33" fill="none" xmlns="http://www.w3.org/2000/svg">
<path d="M35.5873 0H2.3995C1.07711 0 0 1.07711 0 2.3995V9.63C0 10.9524 1.07711 12.0295 2.3995 12.0295H35.5873C36.9097 12.0295 37.9868 10.9524 37.9868 9.63V2.3995C37.9868 1.07711 36.9097 0 35.5873 0V0ZM2.66611 2.66611H26.7891V9.36339H2.66611V2.66611ZM35.3207 9.36339H29.4552V2.66611H35.3207V9.36339Z" fill="#1BC5BD"/>
<path d="M25.8613 13.8211H2.3995C1.07711 13.8211 0 14.8982 0 16.2206V19.8892C0 21.2116 1.07711 22.2887 2.3995 22.2887H25.8613C27.1837 22.2887 28.2608 21.2116 28.2608 19.8892V16.2206C28.2608 14.8982 27.1837 13.8211 25.8613 13.8211V13.8211ZM25.5947 19.6226H2.66611V16.4872H25.5947V19.6226Z" fill="#1BC5BD"/>
<path d="M25.8613 23.6323H2.3995C1.07711 23.6323 0 24.7094 0 26.0318V29.7004C0 31.0228 1.07711 32.0999 2.3995 32.0999H25.8613C27.1837 32.0999 28.2608 31.0228 28.2608 29.7004V26.0318C28.2608 24.7094 27.1837 23.6323 25.8613 23.6323ZM25.5947 29.4338H2.66611V26.2984H25.5947V29.4338Z" fill="#1BC5BD"/>
</svg>
