<svg width="36" height="28" viewBox="0 0 36 28" fill="none" xmlns="http://www.w3.org/2000/svg">
<path d="M32.7387 3.30287H29.873C30.6835 2.46721 31.9957 1.9101 33.4913 1.9101H33.9737V0H33.4913C31.2817 0 29.2554 0.9451 28.1169 2.49705C26.9783 0.955048 24.952 0 22.7424 0H22.26V1.9101H22.7424C24.238 1.9101 25.5503 2.46721 26.3608 3.30287H3.26132C1.46663 3.30287 0 4.80508 0 6.66544V20.3545C0 22.2049 1.45698 23.717 3.26132 23.717H26.3511C25.5406 24.5527 24.2284 25.1098 22.7328 25.1098H22.2503V27.0199H22.7328C24.9424 27.0199 26.9686 26.0748 28.1072 24.5228C29.2458 26.0648 31.272 27.0199 33.4816 27.0199H33.9641V25.1098H33.4816C31.9861 25.1098 30.6738 24.5527 29.8633 23.717H32.729C34.5237 23.717 35.9903 22.2148 35.9903 20.3545V6.65549C35.9903 4.80508 34.5334 3.29293 32.729 3.29293L32.7387 3.30287ZM2.65344 20.3445V6.65549C2.65344 6.31724 2.92361 6.03869 3.25167 6.03869H27.1906V20.9713H3.26132C2.93326 20.9713 2.66309 20.6927 2.66309 20.3545L2.65344 20.3445ZM33.3466 20.3445C33.3466 20.6828 33.0764 20.9613 32.7483 20.9613H29.0432V6.03869H32.7483C33.0764 6.03869 33.3466 6.31724 33.3466 6.65549V20.3445Z" fill="#1BC5BD"/>
<path d="M8.13403 9.41113L5.49023 16.6934H6.93757L7.57439 14.8728H10.0156L10.6427 16.6934H12.0804L9.45593 9.41113H8.12438H8.13403ZM7.97965 13.6591L8.7998 11.3411L9.61031 13.6591H7.97965Z" fill="#1BC5BD"/>
<path d="M16.5961 12.9727C16.7312 12.8533 16.8469 12.7141 16.9434 12.5449C17.1171 12.2465 17.204 11.8983 17.204 11.5103C17.204 10.8438 16.9917 10.3264 16.5768 9.95836C16.1715 9.60021 15.6408 9.42114 14.9944 9.42114H12.2734V16.7034H15.2356C15.9014 16.7034 16.432 16.5343 16.8373 16.206C17.2522 15.8677 17.4645 15.3504 17.4645 14.6739C17.4645 14.2063 17.3487 13.8084 17.1075 13.4701C16.9627 13.2712 16.7891 13.1021 16.5961 12.9727V12.9727ZM13.6339 12.4455V10.6746H14.9172C15.2259 10.6746 15.4575 10.7542 15.6215 10.9035C15.7759 11.0527 15.8531 11.2616 15.8531 11.5501C15.8531 11.8386 15.7759 12.0575 15.6119 12.2067C15.4479 12.3659 15.2163 12.4455 14.9172 12.4455H13.6339V12.4455ZM16.1233 14.5446C16.1233 14.8331 16.0461 15.0519 15.8821 15.2012C15.718 15.3603 15.4865 15.4399 15.1873 15.4399H13.6339V13.6492H15.1873C15.4961 13.6492 15.718 13.7288 15.8821 13.888C16.0461 14.0472 16.1233 14.266 16.1233 14.5545V14.5446Z" fill="#1BC5BD"/>
<path d="M22.5591 14.3158C22.5109 14.5148 22.4144 14.7138 22.2889 14.8928C22.1635 15.062 21.9995 15.2112 21.8065 15.3206C21.6135 15.43 21.3626 15.4897 21.0828 15.4897C20.6969 15.4897 20.3784 15.3903 20.1372 15.2012C19.8864 15.0122 19.6934 14.7337 19.5679 14.3755C19.4329 14.0074 19.3653 13.5597 19.3653 13.0524C19.3653 12.545 19.4329 12.1073 19.5679 11.7292C19.6934 11.381 19.8864 11.1025 20.1372 10.9035C20.3881 10.7145 20.7065 10.615 21.0828 10.615C21.3626 10.615 21.6135 10.6747 21.8065 10.7841C22.0091 10.8936 22.1731 11.0428 22.2889 11.2119C22.4144 11.391 22.5109 11.59 22.5591 11.7989L22.6073 11.9978L23.9582 11.9083L23.9196 11.6397C23.8713 11.3512 23.7749 11.0726 23.6301 10.7941C23.4854 10.5255 23.2828 10.2768 23.0415 10.0579C22.8003 9.83903 22.5109 9.66991 22.1924 9.54058C21.8644 9.41125 21.4977 9.35156 21.0925 9.35156C20.446 9.35156 19.8864 9.51074 19.4232 9.81914C18.9601 10.1275 18.6031 10.5653 18.3618 11.1224C18.1206 11.6695 18.0048 12.3162 18.0048 13.0424C18.0048 13.7687 18.1206 14.4253 18.3618 14.9625C18.6031 15.5196 18.9601 15.9573 19.4232 16.2657C19.8864 16.5741 20.446 16.7333 21.0925 16.7333C21.4977 16.7333 21.8644 16.6736 22.1924 16.5443C22.5205 16.4149 22.81 16.2458 23.0415 16.027C23.2828 15.8081 23.4757 15.5594 23.6205 15.2908C23.7652 15.0222 23.8713 14.7337 23.9099 14.4551L23.9485 14.1865L22.5977 14.1069L22.5494 14.3059L22.5591 14.3158Z" fill="#1BC5BD"/>
</svg>
