<svg width="39" height="23" viewBox="0 0 39 23" fill="none" xmlns="http://www.w3.org/2000/svg">
<path d="M4.63333 23H0L8.64445 0H13.4111L22 23H17.3778L15.4111 17.4054H6.61111L4.64444 23H4.63333ZM14.3222 14.0792L11.0333 4.79848L7.71111 14.0792H14.3222Z" fill="#5B5B5B"/>
<path d="M33.8429 19.9206C33.4869 20.5006 33.0445 21.0279 32.5051 21.4919C31.9656 21.956 31.3183 22.3251 30.5738 22.5993C29.8186 22.8629 28.9339 23 27.9305 23C26.3985 23 25.2009 22.5993 24.3163 21.7978C23.4316 20.9963 23 19.8784 23 18.4442C23 17.2208 23.3129 16.1979 23.9386 15.3648C24.5644 14.5422 25.4059 13.92 26.4525 13.4981C27.499 13.0763 28.6426 12.8759 29.8941 12.8759C30.8328 12.8759 31.6959 12.9392 32.4835 13.0763C33.2711 13.2134 34.0479 13.3821 34.7923 13.6036L33.4653 15.755C33.0121 15.639 32.5482 15.5651 32.0627 15.5124C31.5772 15.4702 31.0701 15.4386 30.5199 15.4386C29.3763 15.4386 28.4484 15.6495 27.7579 16.0608C27.0674 16.4721 26.7114 17.0627 26.7114 17.8325C26.7114 18.4653 26.9164 18.9504 27.3156 19.3089C27.7256 19.6675 28.3513 19.8468 29.2144 19.8468C29.7539 19.8468 30.2394 19.773 30.6817 19.6253C31.1241 19.4777 31.5125 19.2984 31.8577 19.0875C32.203 18.866 32.4943 18.6445 32.7316 18.4125C32.969 18.1805 33.174 17.9696 33.3142 17.7903L34.6628 18.0962C34.4579 18.7289 34.1881 19.33 33.8321 19.91L33.8429 19.9206ZM34.1558 6.66439C35.2131 7.11787 36.0115 7.77171 36.5509 8.60484C37.0904 9.43797 37.3601 10.4082 37.3601 11.5261V18.5602C37.3601 19.1402 37.4788 19.5726 37.7053 19.8679C37.9319 20.1632 38.3742 20.3108 39 20.3108V22.8629C37.8995 23.0105 36.9177 22.9578 36.033 22.7258C35.1483 22.4938 34.4471 22.0298 33.9292 21.3548C33.4113 20.6799 33.1524 19.7413 33.1524 18.5602V11.5471C33.1524 10.7562 32.8827 10.1656 32.3432 9.78598C31.8038 9.40633 31.0486 9.2165 30.0668 9.2165C29.085 9.2165 28.3297 9.40633 27.7795 9.77543C27.2401 10.1445 26.9703 10.7351 26.9703 11.5471H23.3668C23.3021 10.3976 23.5287 9.40633 24.0573 8.58375C24.5752 7.76117 25.3628 7.12841 26.3985 6.67494C27.4343 6.22146 28.7289 6 30.2502 6C31.7714 6 33.0877 6.23201 34.1342 6.68548L34.1558 6.66439Z" fill="#5B5B5B"/>
</svg>
